<?xml version="1.0" encoding="utf-8"?>
<!-- Generator: Adobe Illustrator 25.2.0, SVG Export Plug-In . SVG Version: 6.00 Build 0)  -->
<svg version="1.1" id="Layer_1" xmlns="http://www.w3.org/2000/svg" xmlns:xlink="http://www.w3.org/1999/xlink" x="0px" y="0px"
	 viewBox="0 0 500 500" style="enable-background:new 0 0 500 500;" xml:space="preserve">
<style type="text/css">
	.st0{fill:url(#SVGID_1_);}
	.st1{fill:url(#SVGID_2_);}
</style>
<g>
	<linearGradient id="SVGID_1_" gradientUnits="userSpaceOnUse" x1="248.3539" y1="164.5683" x2="494" y2="164.5683">
		<stop  offset="0" style="stop-color:#00CED1"/>
		<stop  offset="1" style="stop-color:#00CED1"/>
	</linearGradient>
	<path class="st0" d="M494,113.14c-2.56,8.27-5.28,16.46-8.2,24.62c-2.92,8.18-6,16.31-9.29,24.37c-1.06,2.66-2.16,5.28-3.28,7.92
		c-1.08,2.56-2.18,5.11-3.29,7.65c-20.8-9.45-42.3-17.61-64.43-24.35c-8.27-2.54-16.63-4.87-25.07-7
		c-3.67,8.03-7.55,15.95-11.64,23.78c8.56,2.04,17.03,4.3,25.43,6.79c22.17,6.53,43.83,14.59,64.85,24.09
		c-3.82,7.8-7.8,15.5-11.97,23.1c-4.17,7.65-8.49,15.18-12.98,22.62c-2.95,4.89-5.97,9.74-9.09,14.54
		c-21.61-9.45-44.12-17.2-67.36-23.08c-8.99-2.28-18.07-4.29-27.27-5.98c-13.77-2.57-27.76-4.48-41.94-5.71
		c-12.16-1.06-24.44-1.63-36.85-1.66c-0.55-0.02-1.08-0.02-1.63-0.02c-0.55,0-1.1,0-1.65,0.02c0.57-0.62,1.11-1.25,1.65-1.89
		c5.73-6.58,11.25-13.34,16.56-20.27c10.87-14.13,20.89-28.93,30.01-44.34c3.22-5.45,6.33-10.97,9.31-16.58
		c1.44-2.69,2.86-5.42,4.25-8.16c3.07-6.02,5.98-12.14,8.76-18.33c6.93-15.35,12.98-31.18,18.11-47.41
		c12.43,1.78,24.78,3.96,37.02,6.55c10.31,2.14,20.53,4.58,30.7,7.27c3.31,0.87,6.6,1.78,9.89,2.73c4.99,1.41,9.98,2.9,14.94,4.46
		c18.5,5.78,36.77,12.47,54.75,20.08C487.55,110.31,490.79,111.72,494,113.14z"/>
	<linearGradient id="SVGID_2_" gradientUnits="userSpaceOnUse" x1="6" y1="250" x2="410.3688" y2="250">
		<stop  offset="0" style="stop-color:#00CED1"/>
		<stop  offset="1" style="stop-color:#00CED1"/>
	</linearGradient>
	<path class="st1" d="M341.12,260.87c-6.19-1.39-12.45-2.64-18.73-3.74c-3.28-0.58-6.57-1.11-9.88-1.61
		c-11.63-1.77-23.36-3.04-35.21-3.79c-9.05-0.6-18.16-0.89-27.32-0.89c-9.16,0-18.28,0.29-27.33,0.89
		c-11.85,0.75-23.58,2.02-35.21,3.79c-3.31,0.5-6.6,1.03-9.88,1.63c2.26-1.82,4.51-3.67,6.72-5.54c9-7.6,17.71-15.6,26.13-24.02
		c0.36-0.36,0.72-0.72,1.06-1.08c7.67-7.7,14.97-15.66,21.92-23.84c5.78-6.77,11.3-13.7,16.58-20.78
		c6.16-8.25,11.99-16.72,17.47-25.36c5.26-8.28,10.22-16.72,14.85-25.33c2.44-4.49,4.77-9.02,7.01-13.6
		c4.72-9.59,9.04-19.34,12.98-29.27c3.1-7.79,5.97-15.67,8.57-23.66c-7-0.72-14.03-1.29-21.09-1.73
		c-9.52-0.63-19.09-1.03-28.67-1.18c-3.7-0.09-7.41-0.12-11.13-0.12c-3.72,0-7.44,0.03-11.15,0.12c-9.6,0.15-19.17,0.55-28.69,1.18
		c-7.05,0.45-14.08,1.01-21.08,1.73c-8.75,0.86-17.46,1.92-26.12,3.19c-12.43,1.78-24.78,3.96-37.02,6.55
		c-10.31,2.14-20.54,4.58-30.71,7.29c-3.29,0.86-6.58,1.77-9.88,2.71c-4.99,1.41-9.98,2.9-14.94,4.46
		c-18.5,5.78-36.77,12.47-54.75,20.08c-3.24,1.37-6.46,2.76-9.67,4.2c2.54,8.27,5.26,16.46,8.18,24.62
		c2.92,8.18,6.02,16.31,9.29,24.38c1.08,2.64,2.16,5.28,3.28,7.91c1.08,2.56,2.18,5.11,3.31,7.65c3.45,7.87,7.07,15.64,10.84,23.32
		c3.82,7.8,7.82,15.5,11.99,23.1c4.15,7.65,8.49,15.18,12.98,22.62c2.95,4.89,5.97,9.74,9.07,14.54c4.73,7.36,9.62,14.61,14.7,21.74
		c5.02,7.13,10.24,14.15,15.6,21.06c5.35,6.93,10.89,13.74,16.58,20.44c4.2,4.99,8.52,9.91,12.93,14.76
		c6.4,7.08,12.98,14.01,19.75,20.82c0.41,0.43,0.82,0.84,1.25,1.27c5.01,5.01,10.08,9.91,15.24,14.71
		c6.6,6.17,13.31,12.18,20.15,17.97c8.9,7.61,17.99,14.94,27.28,21.97c10.27,7.8,20.8,15.24,31.57,22.34
		c10.75-7.1,21.28-14.54,31.57-22.34c9.29-7.03,18.38-14.35,27.28-21.95c-20.54-12.26-40.21-25.88-58.85-40.71
		c-3.22-2.54-6.4-5.13-9.55-7.77c-3.58-2.98-7.13-6.02-10.63-9.11c-5.62-4.92-11.13-9.96-16.53-15.11
		c11.88-1.27,23.94-1.94,36.15-1.95h1.11c12.21,0.02,24.26,0.69,36.15,1.95c27.25,2.9,53.57,8.99,78.56,17.9
		c4.41-4.85,8.71-9.77,12.93-14.75c5.69-6.7,11.21-13.51,16.58-20.44c5.37-6.91,10.56-13.92,15.6-21.06
		C388.06,273.63,364.89,266.2,341.12,260.87z M144.92,194.75c-6.5,5.71-13.22,11.16-20.15,16.38c-4.53-7.48-8.87-15.06-13.03-22.77
		c-2.04-3.77-4.05-7.58-5.98-11.42c-3.96-7.75-7.72-15.6-11.28-23.58c8.28-2.54,16.63-4.87,25.07-6.98
		c14.83-3.76,29.91-6.88,45.2-9.35c8.3-1.34,16.69-2.49,25.1-3.43c3.65-0.41,7.31-0.79,10.96-1.13c-2.18,3.14-4.42,6.24-6.71,9.29
		c-5.02,6.69-10.29,13.19-15.76,19.48C167.98,173.18,156.82,184.37,144.92,194.75z"/>
</g>
</svg>
