<?xml version="1.0" encoding="utf-8"?>
<!-- Generator: Adobe Illustrator 25.2.0, SVG Export Plug-In . SVG Version: 6.00 Build 0)  -->
<svg version="1.1" id="Layer_1" xmlns="http://www.w3.org/2000/svg" xmlns:xlink="http://www.w3.org/1999/xlink" x="0px" y="0px"
	 viewBox="0 0 23.5 12" style="enable-background:new 0 0 23.5 12;" xml:space="preserve">
<style type="text/css">
	.st0{fill:#00CED1;stroke:#EB7077;stroke-width:8.610687e-03;stroke-miterlimit:10;}
	.st1{fill:#00CED1;stroke:#F6A2AD;stroke-width:8.610687e-03;stroke-miterlimit:10;}
</style>
<g>
	<path class="st0" d="M5.8,0.4C5.9,0.2,6,0.1,6.2,0c0.1,0,0.1,0,0.2,0h3.2C9.5,0.1,9.4,0.2,9.3,0.3C9.2,0.6,9.1,0.9,9,1.2
		C8.7,2.1,8.5,3,8.3,3.9C8.2,4.4,8.1,4.8,8,5.2C7.8,6.6,7.5,8,7.2,9.3c-0.1,0.6-0.3,1.3-0.5,1.9c-0.1,0.3-0.2,0.5-0.4,0.7
		c0,0-0.1,0.1-0.2,0.1H3.3c-0.2,0-0.4,0-0.6,0c0.1-0.1,0.2-0.2,0.3-0.4c0.2-0.4,0.3-0.8,0.5-1.3C3.7,9.6,3.8,8.9,4,8.2
		c0.1-0.5,0.2-0.9,0.3-1.4c0.1-0.5,0.2-1,0.3-1.6C4.7,4.5,4.8,3.7,5,3c0.1-0.6,0.3-1.2,0.5-1.8C5.6,0.9,5.7,0.6,5.8,0.4z"/>
	<path class="st1" d="M9.6,0c0.1,0,0.2,0,0.2,0c0.2,0.1,0.3,0.2,0.4,0.4c0.1,0.2,0.2,0.4,0.3,0.7C10.8,2,11,2.9,11.2,3.8
		c0.2,0.8,0.3,1.6,0.5,2.4c0,0,0,0.1,0.1,0.1c-0.2,1.1-0.4,2.1-0.7,3.2c-0.1,0.6-0.3,1.1-0.5,1.7c-0.1,0.3-0.2,0.6-0.5,0.8
		c-0.2,0-0.3-0.1-0.4-0.2c-0.2-0.2-0.3-0.4-0.4-0.7c-0.3-0.9-0.5-1.8-0.7-2.7C8.5,7.7,8.4,7,8.2,6.3C8.2,5.9,8.1,5.6,8.1,5.2
		c0,0,0,0,0,0c0.1-0.4,0.2-0.8,0.3-1.3C8.5,3,8.7,2.1,9,1.2c0.1-0.3,0.2-0.6,0.4-0.9C9.4,0.2,9.5,0.1,9.6,0L9.6,0z"/>
	<path class="st0" d="M13.1,0.5c0.1-0.2,0.2-0.4,0.4-0.5c1.1,0,2.2,0,3.4,0c-0.1,0.1-0.2,0.2-0.3,0.3c-0.2,0.4-0.3,0.8-0.5,1.3
		c-0.3,1.2-0.6,2.4-0.8,3.6c-0.2,1.2-0.4,2.4-0.7,3.6c-0.1,0.6-0.3,1.2-0.4,1.8c-0.1,0.4-0.2,0.7-0.4,1.1c-0.1,0.2-0.2,0.3-0.4,0.4
		c-1.1,0-2.1,0-3.2,0c-0.1,0-0.1,0-0.2,0c0.2-0.2,0.4-0.5,0.5-0.8c0.2-0.5,0.4-1.1,0.5-1.7c0.3-1.1,0.5-2.1,0.7-3.2
		C12,5,12.2,3.6,12.5,2.2C12.7,1.7,12.8,1.1,13.1,0.5L13.1,0.5z"/>
	<path class="st1" d="M16.9,0c0.1,0,0.2,0,0.3,0c0.1,0.1,0.3,0.2,0.3,0.3c0.2,0.2,0.2,0.5,0.3,0.8c0.2,0.7,0.4,1.5,0.6,2.2
		c0.2,1,0.4,2,0.6,3c0,0.2,0.1,0.5,0.1,0.7l0,0c-0.1,0.1-0.1,0.3-0.2,0.5c-0.2,0.6-0.3,1.2-0.4,1.8c-0.1,0.5-0.2,0.9-0.3,1.4
		c-0.1,0.3-0.2,0.7-0.5,0.9c-0.1,0.1-0.2,0.2-0.4,0.3c-0.2,0-0.4-0.2-0.5-0.4c-0.2-0.4-0.4-0.9-0.5-1.3c-0.4-1.7-0.7-3.3-1.1-5
		c0,0,0,0,0-0.1c0.2-1.2,0.5-2.4,0.8-3.6c0.1-0.4,0.3-0.9,0.5-1.3C16.7,0.2,16.8,0.1,16.9,0z M0,6.5c0.1,0,0.1,0,0.2,0h3.1
		c0.1,0,0.3,0,0.4,0.1c0.2,0.1,0.3,0.2,0.5,0.4c0,0,0,0,0.1,0C4.2,7.3,4.1,7.8,4,8.2c-0.1,0.7-0.3,1.4-0.5,2.1
		c-0.1,0.4-0.3,0.9-0.5,1.3c-0.1,0.1-0.2,0.3-0.3,0.4c0,0-0.1,0-0.1-0.1c-0.1-0.1-0.2-0.2-0.3-0.4c-0.4-0.9-0.4-1.9-0.7-2.8
		C1.5,8.3,1.3,7.9,1.1,7.4C1,7.2,0.8,6.9,0.6,6.7C0.4,6.6,0.2,6.5,0,6.5L0,6.5z"/>
	<path class="st0" d="M19.5,6.8c0.2-0.2,0.4-0.3,0.7-0.3h2.3c0.3,0,0.6,0,1,0c-0.1,0.1-0.2,0.1-0.3,0.1c-0.4,0.2-0.7,0.4-0.8,0.8
		c-0.3,0.5-0.4,1.2-0.5,1.8c-0.1,0.6-0.1,1.2-0.3,1.8c-0.1,0.4-0.3,0.8-0.7,1.1c-1.1,0-2.1,0-3.2,0c-0.1,0-0.1,0-0.2,0
		c0.2-0.1,0.3-0.2,0.4-0.3c0.2-0.3,0.3-0.6,0.5-0.9c0.1-0.4,0.2-0.9,0.3-1.4c0.1-0.6,0.2-1.2,0.4-1.8c0.1-0.2,0.1-0.3,0.2-0.5
		C19.3,7,19.4,6.9,19.5,6.8z"/>
</g>
</svg>
